<?xml version="1.0" standalone="no"?>
<svg version="1.0" xmlns="http://www.w3.org/2000/svg"
 width="1626.000000pt" height="210.000000pt" viewBox="0 0 1626.000000 210.000000"
 preserveAspectRatio="xMidYMid meet">
<g transform="translate(0.000000,210.000000) scale(0.100000,-0.100000)"
fill="#000000" stroke="none">
<path d="M1560 1505 c-26 -15 -100 -94 -100 -107 0 -4 -11 -20 -25 -35 -23
-26 -79 -103 -200 -272 -27 -39 -94 -130 -148 -203 -121 -164 -137 -193 -137
-258 0 -51 10 -77 44 -118 43 -50 61 -53 338 -51 145 0 260 5 263 10 8 12 52
12 60 -1 4 -6 107 -10 278 -10 216 0 281 3 315 15 38 13 49 13 95 1 74 -21
551 -20 568 0 6 8 17 14 23 14 13 0 55 43 72 75 6 11 17 41 25 68 16 55 -4 52
274 48 136 -2 177 1 208 13 l37 16 0 -65 c0 -73 8 -93 63 -147 l39 -38 273 0
c212 0 280 3 306 14 54 23 96 78 119 158 10 33 20 48 34 50 12 3 115 5 229 6
219 2 204 0 308 50 4 2 10 -14 14 -35 9 -49 59 -144 93 -176 15 -14 44 -34 64
-46 37 -20 51 -21 499 -21 l460 0 61 33 c72 38 192 147 218 198 25 49 88 237
92 274 2 23 9 31 27 33 13 2 28 -2 32 -10 11 -16 6 -36 -29 -118 -54 -127 -77
-263 -53 -308 5 -9 12 -25 15 -35 3 -10 21 -24 40 -32 19 -8 37 -19 41 -25 8
-12 553 -12 561 1 3 5 12 9 20 9 31 0 104 104 104 147 0 10 4 23 8 29 5 5 14
29 21 54 8 25 22 68 32 95 10 28 25 76 34 108 17 58 40 82 65 67 11 -7 11 -16
-4 -52 -10 -24 -22 -51 -27 -60 -5 -10 -9 -57 -9 -106 0 -73 4 -97 24 -139 33
-67 112 -137 173 -152 64 -17 882 -13 927 4 49 18 109 48 128 63 16 13 22 11
57 -21 22 -19 48 -40 58 -45 11 -6 256 -10 645 -11 608 -1 628 0 663 19 34 19
36 19 68 1 30 -17 65 -18 510 -19 277 0 479 4 483 9 3 5 12 9 20 9 37 0 87 82
123 200 13 41 35 109 51 150 15 41 38 109 50 150 12 41 31 94 41 117 11 24 19
47 19 53 0 6 4 18 10 28 21 39 40 116 40 167 0 54 -7 76 -43 124 -37 51 -35
50 -548 50 -296 0 -479 -4 -479 -9 0 -6 -6 -10 -14 -10 -23 0 -83 -78 -97
-126 -7 -24 -16 -44 -20 -44 -3 0 -20 27 -38 59 -23 44 -45 68 -85 95 l-54 36
-290 0 c-160 0 -297 -3 -306 -6 -13 -5 -12 -9 7 -24 12 -10 19 -21 16 -25 -4
-3 -20 8 -37 25 l-30 30 -226 0 c-144 0 -226 -4 -226 -10 0 -5 -6 -10 -12 -10
-16 0 -68 -44 -68 -57 0 -6 -7 -16 -15 -23 -14 -11 -22 -7 -58 27 -79 76 -54
73 -549 73 -431 0 -444 -1 -498 -22 -30 -12 -66 -30 -79 -40 -30 -23 -43 -23
-59 2 -26 42 -119 72 -166 54 -13 -5 -12 -9 7 -24 12 -10 19 -21 16 -25 -4 -3
-20 8 -37 25 l-31 30 -410 -1 c-229 -1 -414 -5 -417 -10 -3 -5 -12 -9 -20 -9
-16 0 -64 -43 -64 -58 0 -5 -7 -15 -15 -22 -14 -11 -23 -7 -63 31 -26 24 -57
49 -69 56 -15 9 -136 12 -451 13 -236 0 -437 -2 -446 -6 -13 -5 -13 -9 7 -24
12 -10 19 -22 15 -26 -4 -4 -17 5 -29 20 -18 23 -28 27 -51 22 -29 -6 -164
-92 -187 -120 -19 -23 -27 -20 -41 14 -15 36 -68 85 -115 104 -27 12 -131 14
-562 15 -518 1 -529 1 -569 -20 -23 -11 -47 -32 -55 -45 -7 -13 -16 -24 -20
-24 -5 0 -37 20 -72 45 l-65 45 -120 0 c-143 0 -161 -4 -129 -30 12 -10 19
-21 16 -25 -4 -3 -20 8 -37 25 l-31 31 -387 -2 c-363 -1 -390 -3 -422 -21 -62
-35 -67 -43 -147 -283 -31 -93 -61 -176 -67 -182 -6 -7 -8 -23 -4 -36 4 -16
-1 -28 -15 -41 -12 -9 -23 -15 -26 -13 -2 3 -6 29 -8 59 -2 29 -8 94 -14 143
-6 50 -14 130 -19 178 -8 75 -14 93 -39 125 -53 66 -58 67 -363 69 -218 1
-280 -1 -300 -12z m2091 -174 c37 -40 47 -127 24 -196 -18 -51 -71 -136 -133
-214 -62 -76 -80 -81 -368 -81 l-250 0 -23 -67 c-12 -38 -29 -87 -38 -110
l-16 -43 -228 0 c-141 0 -229 4 -229 10 0 14 29 102 40 122 6 10 10 26 10 36
0 10 4 22 8 28 5 5 14 29 22 54 24 84 41 135 55 165 8 17 20 50 29 75 8 25 31
90 50 145 20 55 36 101 36 102 0 4 658 8 830 6 l155 -3 26 -29z m2611 8 c42
-31 70 -91 66 -147 l-3 -47 -80 -3 c-88 -2 -125 -8 -124 -20 3 -21 -3 -21 -27
-3 -23 18 -41 21 -130 21 -102 0 -103 0 -116 27 -7 15 -25 34 -40 42 -24 14
-30 13 -63 -4 -63 -34 -105 -74 -105 -101 l0 -24 310 0 310 0 6 -27 c7 -27
-27 -144 -71 -248 -25 -58 -87 -123 -152 -159 l-45 -26 -402 0 c-221 -1 -409
2 -419 6 -46 17 -97 133 -83 189 l6 25 230 0 c221 0 230 -1 230 -19 0 -11 13
-29 30 -41 27 -19 33 -20 73 -8 61 18 93 47 111 101 9 26 16 52 16 57 0 6
-117 10 -309 10 -268 0 -310 2 -322 16 -10 13 -6 34 26 130 37 110 42 118 100
172 53 49 121 93 162 104 7 2 187 2 399 0 372 -3 388 -3 416 -23z m1198 15 c0
-2 -4 -12 -9 -22 -5 -9 -19 -44 -31 -77 -47 -130 -29 -115 -140 -115 l-98 0
-19 -52 c-30 -79 -162 -458 -163 -465 0 -9 -450 -2 -450 7 0 11 86 276 99 305
10 21 59 156 68 188 5 15 -4 17 -91 17 -53 0 -96 3 -96 8 0 4 16 52 35 107 19
55 35 101 35 102 0 4 710 8 788 5 39 -2 72 -6 72 -8z m1169 -7 c13 -7 35 -29
48 -50 39 -62 34 -107 -37 -318 -71 -210 -91 -241 -209 -318 l-64 -41 -408 0
-407 0 -32 26 c-54 46 -73 108 -51 166 5 13 14 41 20 63 7 22 16 49 21 60 10
22 53 145 78 219 11 33 34 66 75 107 32 32 63 59 69 59 5 0 22 9 38 20 26 19
47 20 381 22 395 3 444 2 478 -15z m1098 14 l242 -1 28 -37 c25 -32 28 -44 27
-107 -1 -106 -41 -186 -144 -288 -44 -43 -80 -83 -80 -89 0 -6 9 -22 20 -36
11 -14 20 -32 20 -40 0 -9 10 -34 21 -57 12 -22 26 -49 31 -59 5 -11 8 -21 6
-22 -5 -5 -568 -9 -572 -4 -22 29 -66 100 -66 109 0 6 -8 10 -17 8 -11 -2 -23
-23 -34 -58 l-16 -55 -232 -3 c-127 -1 -231 1 -231 5 0 15 22 88 35 118 7 17
23 59 35 95 12 36 25 74 29 85 5 11 24 67 43 125 20 58 52 150 72 205 20 55
36 101 36 102 0 3 329 8 425 7 44 -1 189 -2 322 -3z m-7619 -86 c7 -44 15
-111 17 -150 4 -70 16 -194 35 -360 6 -49 12 -101 13 -115 l2 -25 -230 0 -230
0 0 41 c-1 22 2 81 6 130 4 49 5 91 3 93 -6 6 -44 -31 -44 -43 0 -6 -33 -58
-73 -116 l-72 -105 -79 -5 c-119 -8 -336 0 -336 12 0 12 93 149 142 209 21 25
38 49 38 53 0 8 31 53 85 122 74 94 175 238 175 250 0 4 8 14 18 23 10 9 27
28 37 44 l18 27 231 -2 231 -3 13 -80z m2843 75 c10 -6 26 -24 34 -40 20 -38
20 -156 0 -205 -34 -80 -150 -221 -207 -251 -21 -11 -81 -14 -280 -14 l-254 0
-28 -77 c-15 -43 -31 -91 -35 -108 l-7 -30 -232 -3 c-128 -1 -232 1 -232 6 0
18 32 117 41 126 5 6 9 20 9 31 0 12 3 25 7 28 7 8 40 99 124 351 33 98 62
183 65 188 8 12 971 10 995 -2z m6274 -22 c-4 -18 -10 -37 -14 -43 -4 -5 -13
-28 -20 -50 -7 -22 -18 -52 -24 -67 l-12 -28 -125 -1 c-69 0 -157 0 -197 1
-62 1 -73 -1 -82 -19 -22 -40 -18 -41 182 -41 107 0 196 -3 199 -6 6 -6 -2
-34 -37 -129 l-23 -60 -193 -3 c-197 -3 -219 -7 -219 -43 0 -18 11 -19 190
-19 216 0 206 5 171 -86 -10 -27 -25 -64 -31 -81 l-12 -33 -425 0 -425 0 7 32
c4 18 11 39 16 48 5 8 45 125 90 260 44 135 94 280 111 323 l29 77 426 0 425
0 -7 -32z"/>
<path d="M3027 1100 c-10 -33 -15 -64 -12 -70 3 -5 30 -10 60 -10 74 0 108 28
109 91 l1 44 -70 3 -70 3 -18 -61z"/>
<path d="M8123 1201 c-3 -12 -11 -17 -19 -14 -37 14 -80 -42 -110 -147 -7 -25
-26 -83 -43 -129 -28 -76 -30 -86 -17 -106 8 -12 28 -28 44 -34 27 -11 36 -10
79 11 50 25 69 52 93 133 7 22 16 49 20 60 16 39 60 180 60 193 0 43 -96 73
-107 33z"/>
<path d="M9370 1113 c-7 -27 -17 -52 -21 -57 -23 -25 -8 -36 49 -36 72 0 115
24 132 75 18 53 3 65 -80 65 l-67 0 -13 -47z"/>
<path d="M4360 1134 c-6 -14 -10 -33 -10 -43 0 -10 -7 -24 -15 -31 -32 -26
-17 -40 43 -40 75 0 118 25 128 74 11 59 3 66 -71 66 -61 0 -66 -2 -75 -26z"/>
<path d="M12100 1509 c0 -5 -6 -9 -14 -9 -31 0 -83 -79 -111 -168 -15 -48 -33
-100 -40 -117 -6 -16 -18 -46 -25 -65 -6 -19 -16 -44 -20 -55 -5 -11 -23 -63
-40 -115 -17 -52 -35 -104 -40 -115 -4 -11 -11 -29 -13 -40 -3 -11 -15 -46
-26 -77 -26 -72 -27 -170 -2 -213 10 -16 35 -40 57 -52 39 -22 40 -22 574 -21
l535 1 60 28 c34 16 81 49 105 74 46 47 60 54 60 32 0 -18 88 -101 127 -121
28 -14 86 -16 490 -13 l458 2 67 32 c43 21 95 58 142 103 72 68 99 111 126
195 7 22 19 54 25 70 7 17 24 66 39 110 15 44 31 88 36 97 6 10 10 67 10 128
0 127 -13 165 -84 238 -81 85 -55 81 -570 82 l-455 0 -61 -36 c-34 -20 -64
-42 -67 -50 -3 -8 -10 -14 -17 -14 -6 0 -28 -13 -48 -30 l-36 -30 -15 38 c-16
38 -57 76 -113 105 -28 14 -94 16 -573 16 -331 0 -541 -4 -541 -10z m1051
-159 c33 -18 49 -64 49 -140 0 -71 -7 -93 -58 -183 -12 -21 -22 -50 -22 -66 0
-39 -38 -150 -63 -186 -39 -55 -82 -98 -126 -126 l-45 -29 -488 0 -489 0 7 38
c4 20 10 42 14 47 4 6 26 66 49 135 23 69 46 134 51 145 20 45 49 148 44 157
-3 5 -1 15 6 22 6 8 19 36 29 62 9 27 26 68 35 92 l18 42 485 0 c313 0 491 -4
504 -10z m1312 -11 c28 -21 50 -63 62 -113 6 -27 -15 -119 -36 -158 -5 -10 -9
-26 -9 -35 0 -21 -19 -75 -41 -118 -9 -16 -22 -50 -29 -75 -17 -55 -123 -166
-190 -198 -44 -21 -57 -21 -445 -22 -220 0 -405 -1 -412 0 -6 0 -28 23 -48 50
-43 58 -43 85 -6 205 12 39 24 77 26 86 2 9 8 25 13 35 6 11 20 46 32 79 46
129 90 188 190 254 l45 29 411 1 c401 1 412 0 437 -20z"/>
<path d="M12559 1154 c-26 -69 -36 -104 -31 -109 3 -3 33 -5 67 -5 65 0 86 12
114 67 19 37 -14 65 -82 71 -55 4 -57 4 -68 -24z"/>
<path d="M12477 908 c-27 -63 -37 -89 -37 -98 0 -6 31 -10 68 -10 61 0 71 3
91 26 13 15 24 41 25 57 1 38 -29 57 -91 57 -38 0 -43 -3 -56 -32z"/>
<path d="M13904 1195 c-46 -28 -53 -40 -114 -225 -21 -63 -41 -123 -45 -132
-5 -12 2 -26 21 -43 25 -23 34 -26 73 -20 56 8 87 29 106 69 20 44 105 303
105 321 0 26 -38 55 -72 55 -18 0 -52 -11 -74 -25z"/>
</g>
</svg>
